<?xml version="1.0" standalone="no"?>
<!DOCTYPE svg PUBLIC "-//W3C//DTD SVG 20010904//EN"
 "http://www.w3.org/TR/2001/REC-SVG-20010904/DTD/svg10.dtd">
<svg version="1.0" xmlns="http://www.w3.org/2000/svg"
 width="1280.000000pt" height="774.000000pt" viewBox="0 0 1280.000000 774.000000"
 preserveAspectRatio="xMidYMid meet">
<g transform="translate(0.000000,774.000000) scale(0.100000,-0.100000)"
fill="#ffffff" stroke="none">
<path d="M6150 7671 c-91 -38 -390 -159 -665 -271 -275 -111 -653 -264 -840
-340 -397 -162 -3014 -1222 -3965 -1607 -360 -146 -659 -269 -664 -274 -5 -4
444 -233 1039 -529 577 -286 1051 -522 1053 -524 2 -2 13 -188 25 -413 l21
-409 -34 -47 c-28 -40 -35 -59 -38 -112 -4 -57 -1 -70 25 -117 l30 -53 -28
-220 c-37 -286 -104 -868 -123 -1065 -9 -85 -18 -182 -21 -214 l-6 -59 61 -58
c70 -67 195 -134 279 -149 70 -13 160 -13 257 1 84 11 128 29 138 54 3 8 -6
104 -19 213 -49 395 -75 814 -75 1233 0 217 1 227 21 245 65 59 81 167 36 254
-15 28 -27 68 -27 88 0 45 41 536 45 540 1 2 830 -411 1842 -917 l1839 -919
600 302 c329 166 1544 776 2699 1355 3075 1542 3137 1573 3128 1582 -4 4 -395
157 -868 339 -473 183 -1125 435 -1450 560 -878 340 -2739 1058 -3235 1250
-239 92 -541 209 -670 259 -129 50 -237 91 -240 90 -3 0 -79 -31 -170 -68z"/>
<path d="M3266 3367 c-3 -12 -16 -130 -30 -262 -45 -431 -146 -1374 -176
-1653 -17 -151 -30 -275 -30 -277 0 -9 455 -305 600 -390 349 -204 796 -410
1150 -529 781 -262 1569 -322 2350 -180 776 141 1536 466 2337 997 l153 101
-5 36 c-3 19 -26 249 -51 510 -122 1257 -160 1640 -166 1646 -4 3 -690 -337
-1525 -756 l-1518 -762 -1543 771 c-1438 719 -1542 769 -1546 748z"/>
</g>
</svg>
